P2
5 5
546
274 277 280 277 274
277 289 299 289 277
280 299 314 299 280
277 289 299 289 277
274 277 280 277 274
